Coordinates
version=1
nRows=20
nColumns=38
inDegrees=no

Units are S.I. units (second, meters, Newtons, ...)
If the header above contains a line with 'inDegrees', this indicates whether rotational values are in degrees (yes) or radians (no).

endheader
time	pelvis_tilt	pelvis_list	pelvis_rotation	pelvis_tx	pelvis_ty	pelvis_tz	hip_flexion_r	hip_adduction_r	hip_rotation_r	knee_angle_r	ankle_angle_r	subtalar_angle_r	mtp_angle_r	hip_flexion_l	hip_adduction_l	hip_rotation_l	knee_angle_l	ankle_angle_l	subtalar_angle_l	mtp_angle_l	lumbar_extension	lumbar_bending	lumbar_rotation	arm_flex_r	arm_add_r	arm_rot_r	elbow_flex_r	pro_sup_r	wrist_flex_r	wrist_dev_r	arm_flex_l	arm_add_l	arm_rot_l	elbow_flex_l	pro_sup_l	wrist_flex_l	wrist_dev_l
0.99	-3.04968	1.49037	-1.57122	0.556764	0.695534	0.960551	0.530635	-0.0879221	-0.0887342	0.739287	0.0892769	0	0	-0.162355	0.106133	0.023208	0.188906	0.237399	0	0	-0.0926552	-0.12093	-0.0698176	-0.036236	-0.00569445	-0.347064	0.167937	1.49317	0	0	-0.137329	-0.585847	0.752118	0.760271	0.639026	0	0
1	-3.07438	1.48881	-1.54638	0.55694	0.707019	0.959267	0.527771	-0.0875056	-0.108034	0.686903	0.099126	0	0	-0.186406	0.102863	0.0275387	0.172438	0.242578	0	0	-0.0973297	-0.119878	-0.068797	-0.0346518	-0.00515223	-0.338613	0.169322	1.48517	0	0	-0.130593	-0.584117	0.744906	0.754364	0.642832	0	0
1.01	-3.1062	1.48737	-1.51352	0.55719	0.718695	0.957883	0.523359	-0.0863748	-0.131107	0.634322	0.109673	0	0	-0.209943	0.0981838	0.0308321	0.156982	0.248181	0	0	-0.101593	-0.118154	-0.0691471	-0.0333419	-0.00452287	-0.329017	0.170296	1.47727	0	0	-0.125238	-0.58276	0.737824	0.749296	0.644392	0	0
1.02	3.14089	1.48621	-1.47634	0.557533	0.730466	0.95637	0.518145	-0.0840462	-0.156069	0.582006	0.120612	0	0	-0.23224	0.0926003	0.0324787	0.143235	0.254411	0	0	-0.105473	-0.115989	-0.0698397	-0.0323328	-0.00410621	-0.31912	0.171705	1.47036	0	0	-0.120983	-0.581438	0.729828	0.74487	0.645875	0	0
1.03	3.1001	1.48544	-1.43459	0.558002	0.742287	0.954699	0.512522	-0.0800136	-0.181238	0.529977	0.131163	0	0	-0.252322	0.086218	0.0323312	0.132629	0.262097	0	0	-0.108942	-0.113419	-0.0704237	-0.0316144	-0.00383822	-0.310932	0.173907	1.4652	0	0	-0.117256	-0.580325	0.721698	0.741326	0.646558	0	0
1.04	3.06265	1.48694	-1.39593	0.558598	0.754158	0.952684	0.508991	-0.0754277	-0.205723	0.480484	0.142821	0	0	-0.266748	0.080213	0.0298552	0.128174	0.272207	0	0	-0.109813	-0.111813	-0.0712956	-0.0309983	-0.00319348	-0.308107	0.175826	1.46494	0	0	-0.114154	-0.580961	0.716702	0.740329	0.6447	0	0
1.05	3.00873	1.48713	-1.34002	0.559245	0.766148	0.950701	0.502228	-0.0681523	-0.230352	0.429986	0.152857	0	0	-0.280408	0.0722564	0.0269473	0.1272	0.283447	0	0	-0.111874	-0.108598	-0.0730597	-0.0303129	-0.00255657	-0.306251	0.178146	1.46548	0	0	-0.111543	-0.581391	0.710695	0.739952	0.641451	0	0
1.06	2.94949	1.48757	-1.27851	0.560018	0.778245	0.948624	0.495237	-0.059191	-0.252467	0.380989	0.161575	0	0	-0.29119	0.063709	0.0236153	0.131106	0.295717	0	0	-0.113292	-0.105252	-0.0751979	-0.0295098	-0.00159044	-0.304923	0.180058	1.46652	0	0	-0.109479	-0.582355	0.705661	0.74012	0.637781	0	0
1.07	2.87878	1.48795	-1.20549	0.560952	0.790489	0.9465	0.487585	-0.0476469	-0.270153	0.332629	0.168686	0	0	-0.299392	0.0540311	0.0187316	0.139542	0.309368	0	0	-0.113994	-0.101247	-0.0774332	-0.0284895	-0.000511378	-0.303454	0.181188	1.46805	0	0	-0.108115	-0.583672	0.701565	0.740376	0.634037	0	0
1.08	2.79508	1.48808	-1.11958	0.562024	0.802966	0.94435	0.479307	-0.0337011	-0.281853	0.285062	0.173356	0	0	-0.305429	0.0431401	0.0108916	0.151209	0.323964	0	0	-0.113538	-0.0963754	-0.0795975	-0.0275347	0.00036501	-0.301372	0.181343	1.47036	0	0	-0.107465	-0.585242	0.699307	0.739988	0.630217	0	0
1.09	2.70631	1.48805	-1.02833	0.563161	0.815653	0.942194	0.471123	-0.0189932	-0.287927	0.240363	0.175337	0	0	-0.309541	0.0318026	0.00143267	0.165689	0.338193	0	0	-0.112003	-0.0914589	-0.0821185	-0.0266049	0.00111595	-0.298643	0.18073	1.47316	0	0	-0.107275	-0.587413	0.699057	0.740251	0.626585	0	0
1.1	2.62965	1.48746	-0.950244	0.564316	0.828401	0.940101	0.462959	-0.00477432	-0.288299	0.201298	0.174494	0	0	-0.313325	0.0216742	-0.00888951	0.182154	0.351184	0	0	-0.111142	-0.0872452	-0.0833913	-0.0255637	0.00147134	-0.295534	0.180199	1.47581	0	0	-0.106558	-0.589586	0.700085	0.741294	0.623293	0	0
1.11	2.57035	1.48716	-0.88996	0.565381	0.84129	0.938094	0.456548	0.00682779	-0.286958	0.172516	0.173113	0	0	-0.316429	0.0132307	-0.0190077	0.200715	0.362234	0	0	-0.110509	-0.0843467	-0.0842404	-0.0246253	0.00153755	-0.292353	0.179568	1.47787	0	0	-0.105971	-0.591574	0.701943	0.742388	0.621047	0	0
1.12	2.51897	1.48739	-0.8373	0.566305	0.854421	0.936172	0.452752	0.0156038	-0.285482	0.155481	0.171736	0	0	-0.318071	0.00553687	-0.0285578	0.22186	0.371637	0	0	-0.109267	-0.0821301	-0.0854169	-0.0242272	0.00152259	-0.289521	0.179013	1.47968	0	0	-0.106112	-0.593504	0.705823	0.742474	0.620136	0	0
1.13	2.4704	1.48804	-0.786673	0.567054	0.867791	0.934307	0.452419	0.0214615	-0.285134	0.15227	0.17117	0	0	-0.317819	-0.00207536	-0.037245	0.246228	0.379927	0	0	-0.107279	-0.0801834	-0.087162	-0.0247972	0.0015144	-0.287173	0.179189	1.4814	0	0	-0.106792	-0.595236	0.71073	0.742765	0.619853	0	0
1.14	2.42503	1.48929	-0.738733	0.567591	0.881435	0.932467	0.45542	0.0243714	-0.285469	0.162844	0.172317	0	0	-0.316108	-0.00919766	-0.0441156	0.272992	0.386284	0	0	-0.104348	-0.0785364	-0.0892342	-0.0261613	0.00154251	-0.285346	0.179193	1.4823	0	0	-0.108329	-0.596452	0.715494	0.743668	0.62018	0	0
1.15	2.38414	1.49133	-0.694398	0.567843	0.895381	0.930655	0.460711	0.0244148	-0.285954	0.184622	0.174926	0	0	-0.313102	-0.0155017	-0.0484039	0.301621	0.3901	0	0	-0.100493	-0.0772927	-0.0917657	-0.0288759	0.00133498	-0.283768	0.180447	1.48319	0	0	-0.110888	-0.597027	0.719472	0.745284	0.621036	0	0
1.16	2.3366	1.49386	-0.640645	0.567787	0.909737	0.928905	0.466745	0.0222656	-0.28825	0.213411	0.178365	0	0	-0.308069	-0.0225301	-0.0491345	0.332509	0.391425	0	0	-0.0950535	-0.0757339	-0.0968092	-0.0331874	0.00118767	-0.282408	0.182569	1.48446	0	0	-0.115486	-0.597264	0.722406	0.747136	0.622414	0	0
1.17	2.27662	1.4962	-0.571299	0.567373	0.924494	0.92726	0.471255	0.018949	-0.293044	0.24339	0.182309	0	0	-0.300651	-0.0310439	-0.0468889	0.366137	0.390034	0	0	-0.0880585	-0.0730997	-0.104721	-0.0387677	0.00103359	-0.281397	0.184515	1.48514	0	0	-0.121979	-0.596802	0.724635	0.748123	0.624259	0	0
1.18	2.20201	1.49828	-0.486412	0.566766	0.939699	0.925609	0.473955	0.0157842	-0.299716	0.270411	0.185948	0	0	-0.291074	-0.0404906	-0.0445059	0.402544	0.3858	0	0	-0.0790589	-0.0694836	-0.113033	-0.0458787	0.00069761	-0.280939	0.186257	1.48494	0	0	-0.129827	-0.59542	0.727063	0.747887	0.626885	0	0
